<?xml version="1.0" encoding="utf-8"?>
<!-- Generator: Adobe Illustrator 25.4.6, SVG Export Plug-In . SVG Version: 6.00 Build 0)  -->
<svg version="1.1" id="Layer_1" xmlns="http://www.w3.org/2000/svg" xmlns:xlink="http://www.w3.org/1999/xlink" x="0px" y="0px"
	 viewBox="0 0 4722.1 1133.3" style="enable-background:new 0 0 4722.1 1133.3;" xml:space="preserve">
<g>
	<path d="M682.9,683.6l-36.5-92.3h-182l-34.5,92.3H306.2l197.3-470.4h110.3l195.3,470.4H682.9z M556.6,338.8l-59.8,161.5H615
		L556.6,338.8z"/>
	<path d="M1221.6,583.6c-9.5,23.2-23.1,43.2-40.8,59.8c-17.7,16.6-39.1,29.6-64.1,38.8c-25,9.3-52.8,14-83.4,14
		c-31,0-58.9-4.6-83.7-14c-24.8-9.3-45.8-22.2-63.1-38.8c-17.2-16.6-30.5-36.6-39.9-59.8c-9.3-23.3-13.9-49.1-13.9-77.4v-293h113
		v283.7c0,12.9,1.6,25,5,36.6c3.3,11.5,8.4,21.8,15.3,30.9c6.9,9.1,16,16.3,27.2,21.6c11.3,5.3,25,8,40.9,8c15.9,0,29.6-2.6,40.8-8
		c11.3-5.3,20.5-12.5,27.6-21.6s12.2-19.4,15.3-30.9c3.1-11.5,4.7-23.7,4.7-36.6V213.2h113.6v293
		C1235.9,534.5,1231.1,560.3,1221.6,583.6"/>
	<polygon points="1549.2,310.2 1549.2,683.6 1435.6,683.6 1435.6,310.2 1302.7,310.2 1302.7,213.2 1682.1,213.2 1682.1,310.2 	"/>
	<path d="M2224.6,446.4c0,37.2-6.4,71.2-19.3,102c-12.9,30.8-30.7,57.2-53.5,79.1c-22.8,21.9-49.9,38.9-81.4,50.8
		c-31.4,12-65.5,17.9-102.3,17.9s-70.8-6-102-17.9c-31.2-12-58.2-28.9-81-50.8c-22.8-21.9-40.7-48.3-53.5-79.1
		c-12.9-30.7-19.3-64.8-19.3-102c0-37.6,6.4-71.6,19.3-102c12.8-30.3,30.7-56.1,53.5-77.4s49.9-37.6,81-49.1
		c31.2-11.5,65.3-17.3,102-17.3s70.8,5.8,102.3,17.3s58.6,27.9,81.4,49.1c22.8,21.3,40.6,47.1,53.5,77.4
		C2218.2,374.8,2224.6,408.8,2224.6,446.4 M2103.1,446.4c0-20.3-3.3-39.4-10-57.1c-6.6-17.7-15.8-32.9-27.5-45.5
		c-11.8-12.6-25.9-22.6-42.6-29.9c-16.6-7.3-34.9-11-54.8-11c-20,0-38.1,3.7-54.5,11s-30.5,17.2-42.5,29.9
		c-12,12.6-21.2,27.8-27.6,45.5s-9.6,36.8-9.6,57.1c0,21.3,3.3,40.8,10,58.8c6.7,17.9,15.9,33.4,27.6,46.2s25.8,22.9,42.2,30.2
		c16.4,7.3,34.5,10.9,54.5,10.9c19.9,0,38.1-3.7,54.5-10.9c16.4-7.4,30.5-17.4,42.5-30.2c12-12.9,21.3-28.3,27.9-46.2
		C2099.7,487.3,2103.1,467.7,2103.1,446.4"/>
	<path d="M2637.4,675.3c-30.5,13.9-65.7,20.9-105.6,20.9c-36.3,0-69.9-5.9-100.6-17.9c-30.8-12-57.5-28.9-80-50.8
		c-22.6-21.9-40.4-48.2-53.2-78.7c-12.9-30.6-19.3-64.2-19.3-101c0-37.6,6.6-71.7,19.6-102.3s31.1-56.6,54.1-78.1s50.1-38,81.1-49.5
		s64.5-17.3,100.3-17.3c33.2,0,65.9,5.9,98,17.6c32.1,11.7,58.1,28.9,78.1,51.5l-77.1,77.1c-10.6-14.6-24.6-25.5-41.9-32.6
		c-17.3-7.1-35-10.6-53.1-10.6c-19.9,0-38.2,3.7-54.8,11s-30.9,17.4-42.9,30.2c-11.9,12.8-21.3,28-27.9,45.5
		c-6.6,17.5-10,36.7-10,57.5c0,21.2,3.4,40.7,10,58.4c6.6,17.7,15.9,32.9,27.6,45.5c11.7,12.6,25.8,22.5,42.2,29.6
		c16.3,7.1,34.3,10.6,53.8,10.6c22.6,0,42.3-4.5,59.1-13.3c16.8-8.9,30.3-20.4,40.4-34.6l79.1,74.4
		C2693.6,642.4,2667.9,661.4,2637.4,675.3"/>
	<path d="M3035.1,683.6L2933,496.9h-38.7v186.7h-110.9V213.2h179.4c22.6,0,44.6,2.4,66.1,7s40.7,12.5,57.8,23.6
		c17,11.1,30.6,25.7,40.9,43.8c10.1,18.1,15.2,40.8,15.2,67.8c0,31.9-8.6,58.7-25.9,80.4c-17.3,21.7-41.2,37.2-71.8,46.5L3168,683.6
		H3035.1z M3030.5,357.4c0-11.1-2.4-20-7-26.9c-4.7-6.8-10.7-12.2-18-15.9c-7.4-3.7-15.6-6.3-24.7-7.6c-9.1-1.3-17.9-2-26.4-2h-60.7
		v109.6h54.1c9.4,0,18.9-0.7,28.7-2.3c9.8-1.5,18.7-4.3,26.7-8.3c8-3.9,14.6-9.7,19.7-17.2C3027.9,379.1,3030.5,369.3,3030.5,357.4"
		/>
	<polygon points="3446.6,484.3 3446.6,683.6 3333,683.6 3333,484.3 3156.2,213.2 3293.8,213.2 3394.1,387.3 3494.4,213.2 
		3627.3,213.2 	"/>
	<path d="M4039.6,358c0,27.5-5.1,50.6-15.3,69.4c-10.2,18.9-23.9,34-41.2,45.6c-17.3,11.5-37.2,19.9-59.8,25.2
		c-22.6,5.3-46.1,8-70.5,8h-56.5v177.4h-113.6V213.2h172.7c25.7,0,49.7,2.6,72,7.7c22.4,5.1,41.9,13.3,58.5,24.6
		c16.6,11.3,29.7,26.1,39.2,44.5C4034.9,308.4,4039.6,331,4039.6,358 M3926,358.7c0-11-2.2-20.2-6.7-27.2
		c-4.4-7.1-10.3-12.6-17.9-16.6c-7.6-4-16.1-6.7-25.6-8s-19.4-2-29.5-2h-49.9v110.9h47.8c10.6,0,20.8-0.9,30.6-2.6
		c9.7-1.8,18.5-4.9,26.2-9.3c7.8-4.4,13.9-10.3,18.2-17.6C3923.8,379,3926,369.8,3926,358.7"/>
	<polygon points="4325.7,310.2 4325.7,683.6 4212.2,683.6 4212.2,310.2 4079.3,310.2 4079.3,213.2 4458.6,213.2 4458.6,310.2 	"/>
	<polygon points="4529.8,641.2 4529.8,837.7 192.4,837.7 192.4,641.2 97.4,641.2 97.4,932.7 4624.7,932.7 4624.7,641.2 	"/>
</g>
</svg>
